<svg xmlns="http://www.w3.org/2000/svg" version="1.1" xmlns:xlink="http://www.w3.org/1999/xlink" xmlns:svgjs="http://svgjs.dev/svgjs" width="1000" height="227" viewBox="0 0 1000 227"><g transform="matrix(1,0,0,1,-0.6060596542608891,-0.11550825877567661)"><svg viewBox="0 0 396 90" data-background-color="#ecab55" preserveAspectRatio="xMidYMid meet" height="227" width="1000" xmlns="http://www.w3.org/2000/svg" xmlns:xlink="http://www.w3.org/1999/xlink"><defs></defs><g id="tight-bounds" transform="matrix(1,0,0,1,0.23999966007511375,0.0457962259463045)"><svg viewBox="0 0 395.52 89.9084075481074" height="89.9084075481074" width="395.52"><g><svg viewBox="0 0 1349.131147660074 306.68040316461315" height="89.9084075481074" width="395.52"><g><svg viewBox="0 0 1349.131147660074 306.68040316461315" height="306.68040316461315" width="1349.131147660074"><g><svg viewBox="0 0 1349.131147660074 306.68040316461315" height="306.68040316461315" width="1349.131147660074"><g><svg viewBox="0 0 1349.131147660074 245.672304" height="245.672304" width="1349.131147660074"><g><svg><g></g><g></g></svg></g><g><svg><g><svg></svg></g><g></g></svg></g><g id="text-0"><svg viewBox="0 0 1349.131147660074 245.672304" height="245.672304" width="1349.131147660074"><g transform="matrix(1,0,0,1,0,72.6962471987076)"><svg width="245.67230400000003" viewBox="1.2000000476837158 -37.900001525878906 92.85000610351562 37.900001525878906" height="100.2798096025848" data-palette-color="#ffffff"><path d="M6.9 0L1.2 0 17.3-37.9 17.65-37.9 33.75 0 27.05 0 15.75-28.8 19.9-31.6 6.9 0ZM9.55-8.55L11.3-13.55 23.75-13.55 25.75-8.55 9.55-8.55ZM44.8 0L44.8-11.8 31.35-36.4 38.5-36.4 48.75-16.8 47-16.7 57.1-36.4 64.25-36.4 50.6-11.8 50.6 0 44.8 0ZM67.2 0L61.5 0 77.6-37.9 77.95-37.9 94.05 0 87.35 0 76.05-28.8 80.2-31.6 67.2 0ZM69.85-8.55L71.6-13.55 84.05-13.55 86.05-8.55 69.85-8.55Z" opacity="1" transform="matrix(1,0,0,1,0,0)" fill="#ffffff" class="undefined-s-0"></path></svg></g><g><svg xmlns="http://www.w3.org/2000/svg" xmlns:xlink="http://www.w3.org/1999/xlink" version="1.1" x="260.150104" y="0" viewBox="0 0 24 24" style="enable-background:new 0 0 24 24;" xml:space="preserve" height="245.672304" width="245.672304" class="icon-x-0" data-fill-palette-color="accent" id="x-0"><g fill="#ffffff" data-fill-palette-color="accent"><path d="M15.586 19.126l-2.935-0.734-0.224-0.897c0.779-0.791 1.316-1.857 1.491-2.954 0.453-0.155 0.797-0.558 0.859-1.055l0.196-1.565c0.045-0.361-0.066-0.726-0.306-1-0.122-0.141-0.272-0.251-0.439-0.326l0.066-1.355 0.266-0.266c0.468-0.497 0.856-1.347 0.054-2.573C14.005 5.471 12.978 5 11.559 5c-0.55 0-1.813 0-3 0.785C5.159 5.866 4.696 7.463 4.696 9.022c0 0.34 0.076 1.061 0.132 1.546-0.186 0.073-0.354 0.19-0.489 0.343-0.244 0.275-0.357 0.643-0.312 1.008l0.196 1.565c0.066 0.531 0.454 0.955 0.953 1.083 0.174 1.052 0.683 2.08 1.415 2.855l-0.242 0.969-2.935 0.734C1.404 19.628 0 21.427 0 23.5 0 23.776 0.224 24 0.5 24h18c0.276 0 0.5-0.226 0.5-0.502C19 21.426 17.596 19.628 15.586 19.126z" fill="#ffffff" data-fill-palette-color="accent"></path><circle cx="17.5" cy="13.5" r="1.5" fill="#ffffff" data-fill-palette-color="accent"></circle><circle cx="15" cy="16" r="1.0" fill="#ffffff" data-fill-palette-color="accent"></circle><path d="M18.5 0c-1.918 0-3.701 1.025-4.69 2.655C13.106 2.225 12.318 2 11.5 2c-1.488 0-2.878 0.741-3.72 1.981-0.129 0.19-0.112 0.444 0.042 0.615C7.978 4.769 8.228 4.812 8.43 4.703 9.742 4 11.015 4 11.559 4c2.214 0 3.338 1.007 3.892 1.852 0.857 1.309 0.833 2.656-0.064 3.698-0.072 0.084-0.116 0.209-0.122 0.321-0.006 0.129 0.071 0.294 0.157 0.392 0.109 0.125 0.208 0.277 0.304 0.465C15.811 10.895 15.983 11 16.171 11H18.5c3.033 0 5.5-2.467 5.5-5.5S21.533 0 18.5 0zM17.5 7C17.224 7 17 6.776 17 6.5 17 6.224 17.224 6 17.5 6S18 6.224 18 6.5C18 6.776 17.776 7 17.5 7zM20.5 7C20.224 7 20 6.776 20 6.5 20 6.224 20.224 6 20.5 6S21 6.224 21 6.5C21 6.776 20.776 7 20.5 7z" fill="#ffffff" data-fill-palette-color="accent"></path></g></svg></g><g transform="matrix(1,0,0,1,520.300208,46.923410063999995)"><svg width="828.830939660074" viewBox="5 -37.900001525878906 206.88999938964844 37.900001525878906" height="151.825483872" data-palette-color="#ffffff"><path d="M5-36.4L15.25-36.4Q18.25-36.4 20.75-35.63 23.25-34.85 25-33.35 26.75-31.85 27.73-29.68 28.7-27.5 28.7-24.7L28.7-24.7Q28.7-22.55 28.05-20.4 27.4-18.25 25.93-16.53 24.45-14.8 22.05-13.73 19.65-12.65 16.1-12.65L16.1-12.65 10.85-12.65 10.85 0 5 0 5-36.4ZM10.85-18.25L16.05-18.25Q18-18.25 19.3-18.88 20.6-19.5 21.33-20.45 22.05-21.4 22.38-22.48 22.7-23.55 22.7-24.5L22.7-24.5Q22.7-25.4 22.4-26.48 22.1-27.55 21.38-28.53 20.65-29.5 19.4-30.15 18.15-30.8 16.25-30.8L16.25-30.8 10.85-30.8 10.85-18.25ZM15.4-14.65L22.35-14.8 31.65 0 24.9 0 15.4-14.65ZM38.5 0L38.5-36.4 62.65-36.4 62.65-30.8 44.35-30.8 44.35-21.1 60.65-21.1 60.65-15.5 44.35-15.5 44.35-5.6 63.35-5.6 63.35 0 38.5 0ZM73.3 0L67.6 0 83.7-37.9 84.05-37.9 100.15 0 93.45 0 82.15-28.8 86.3-31.6 73.3 0ZM75.95-8.55L77.7-13.55 90.15-13.55 92.15-8.55 75.95-8.55ZM106.34 0L106.34-36.4 112.19-36.4 112.19-5.6 130.09-5.6 130.09 0 106.34 0ZM137.84 0L137.84-36.4 143.69-36.4 143.69 0 137.84 0ZM151.09-30.8L151.09-36.4 175.44-36.4 175.44-30.8 166.04-30.8 166.04 0 160.24 0 160.24-30.8 151.09-30.8ZM192.44 0L192.44-11.8 178.99-36.4 186.14-36.4 196.39-16.8 194.64-16.7 204.74-36.4 211.89-36.4 198.24-11.8 198.24 0 192.44 0Z" opacity="1" transform="matrix(1,0,0,1,0,0)" fill="#ffffff" class="undefined-s-1"></path></svg></g></svg></g></svg></g><g transform="matrix(1,0,0,1,257.68404920307415,269.34596033173983)"><svg viewBox="0 0 833.7630492539257 37.33444283287338" height="37.33444283287338" width="833.7630492539257"><g transform="matrix(1,0,0,1,0,0)"><svg width="833.7630492539257" viewBox="3 -37.099998474121094 1055.1199951171875 47.25" height="37.33444283287338" data-palette-color="#ffffff"><path d="M6.9-35L6.9-35 20.3-35Q22.4-35 23.08-33.95 23.75-32.9 23.98-29.63 24.2-26.35 24.2-16.93 24.2-7.5 23.8-3.1L23.8-3.1Q23.65-1.95 22.78-1.05 21.9-0.15 20.45-0.05L20.45-0.05Q17.6 0.15 13.85 0.15 10.1 0.15 6.75-0.05L6.75-0.05Q5.3-0.15 4.42-1.05 3.55-1.95 3.4-3.1L3.4-3.1Q3-7.5 3-16.93 3-26.35 3.23-29.63 3.45-32.9 4.13-33.95 4.8-35 6.9-35ZM51.9-2.15L51.9-2.15 51.95-14.35Q51.95-15.85 51.2-16.6 50.45-17.35 49.32-17.35 48.2-17.35 47.27-16.57 46.35-15.8 46.35-14.4L46.35-14.4 46.35-11.35Q46.35-4.75 46.05-2.35L46.05-2.35Q45.9-1.5 45.2-0.85 44.5-0.2 42.72-0.08 40.95 0.05 39.2 0.05 37.45 0.05 33.25-0.15L33.25-0.15Q32.05-0.2 31.35-0.85 30.65-1.5 30.55-2.35L30.55-2.35Q30.2-5.6 30.2-12.3 30.2-19 30.4-21.48 30.6-23.95 31.15-24.7 31.7-25.45 33.4-25.45L33.4-25.45 43.15-25.45Q44.85-25.45 45.42-24.7 46-23.95 46.15-22.15L46.15-22.15 46.15-22.1Q50-26.1 55.52-26.1 61.05-26.1 64.2-23.4 67.35-20.7 67.42-15.95 67.5-11.2 67.5-7.45 67.5-3.7 67.45-2.4 67.4-1.1 66.77-0.53 66.15 0.05 64.35 0.05L64.35 0.05 54.75 0.15Q53.15 0.15 52.52-0.43 51.9-1 51.9-2.15ZM75.09-11.55L75.09-18.2Q75.09-19 74-19L74-19Q72.05-19 71.7-20.3L71.7-20.3Q71.5-20.95 71.5-22.3 71.5-23.65 71.87-24.23 72.25-24.8 73.32-25.08 74.4-25.35 75.27-26.03 76.15-26.7 78.87-29 81.59-31.3 82.67-32 83.75-32.7 85.34-32.7L85.34-32.7 87.84-32.7Q89.59-32.7 90.2-32.27 90.8-31.85 90.8-30.95L90.8-30.95 90.8-26.2Q90.8-25.15 91.7-25.15L91.7-25.15 97.05-25.15Q98.34-25.15 98.92-24.6 99.5-24.05 99.5-22.08 99.5-20.1 98.9-19.55 98.3-19 97.09-19L97.09-19 91.9-19Q91.2-19 91-18.65 90.8-18.3 90.8-17.65L90.8-17.65 90.8-11.65Q90.9-9.95 92.07-8.8 93.25-7.65 95.4-7.65L95.4-7.65Q96.45-7.65 98-8.22 99.55-8.8 100.09-8.8L100.09-8.8Q101.45-8.8 101.45-4.8L101.45-4.8Q101.45-1.9 99.9-1.3L99.9-1.3Q98.3-0.75 95.4-0.4 92.5-0.05 89.59-0.05 86.7-0.05 84.07-0.53 81.45-1 79.3-2.2L79.3-2.2Q75.09-4.65 75.09-11.55L75.09-11.55ZM120.74-12.5Q120.74-6.9 123.69-6.9 126.64-6.9 126.64-12.5L126.64-12.5Q126.64-15.05 126.04-16.43 125.44-17.8 123.69-17.8 121.94-17.8 121.34-16.43 120.74-15.05 120.74-12.5L120.74-12.5ZM142.34-12.5Q142.34 1.1 123.69 1.1 105.04 1.1 105.04-12.5L105.04-12.5Q105.04-18.95 109.79-22.5 114.54-26.05 123.69-26.05 132.84-26.05 137.59-22.5 142.34-18.95 142.34-12.5L142.34-12.5ZM169.44-11.55L169.44-18.2Q169.44-19 168.34-19L168.34-19Q166.39-19 166.04-20.3L166.04-20.3Q165.84-20.95 165.84-22.3 165.84-23.65 166.21-24.23 166.59-24.8 167.66-25.08 168.74-25.35 169.61-26.03 170.49-26.7 173.21-29 175.94-31.3 177.01-32 178.09-32.7 179.69-32.7L179.69-32.7 182.19-32.7Q183.94-32.7 184.54-32.27 185.14-31.85 185.14-30.95L185.14-30.95 185.14-26.2Q185.14-25.15 186.04-25.15L186.04-25.15 191.39-25.15Q192.69-25.15 193.26-24.6 193.84-24.05 193.84-22.08 193.84-20.1 193.24-19.55 192.64-19 191.44-19L191.44-19 186.24-19Q185.54-19 185.34-18.65 185.14-18.3 185.14-17.65L185.14-17.65 185.14-11.65Q185.24-9.95 186.41-8.8 187.59-7.65 189.74-7.65L189.74-7.65Q190.79-7.65 192.34-8.22 193.89-8.8 194.44-8.8L194.44-8.8Q195.79-8.8 195.79-4.8L195.79-4.8Q195.79-1.9 194.24-1.3L194.24-1.3Q192.64-0.75 189.74-0.4 186.84-0.05 183.94-0.05 181.04-0.05 178.41-0.53 175.79-1 173.64-2.2L173.64-2.2Q169.44-4.65 169.44-11.55L169.44-11.55ZM200.74-2.35L200.74-2.35 200.64-18.7Q200.64-26.2 200.79-33.3L200.79-33.3Q200.84-34.95 201.41-35.75 201.99-36.55 203.64-36.55L203.64-36.55 213.24-36.55Q214.89-36.55 215.46-35.77 216.04-35 216.16-32.98 216.29-30.95 216.39-22.15L216.39-22.15Q220.29-26.1 225.76-26.1 231.24-26.1 234.39-23.4 237.54-20.7 237.61-15.95 237.69-11.2 237.69-7.45 237.69-3.7 237.64-2.4 237.59-1.1 236.96-0.53 236.34 0.05 234.54 0.05L234.54 0.05 224.94 0.15Q223.34 0.15 222.71-0.43 222.09-1 222.09-2.15L222.09-2.15 222.14-14.35Q222.14-15.85 221.39-16.6 220.64-17.35 219.51-17.35 218.39-17.35 217.49-16.57 216.59-15.8 216.54-14.4L216.54-14.4 216.24-2.35Q216.19-1.4 215.34-0.75 214.49-0.1 213.26 0 212.04 0.1 210.54 0.1L210.54 0.1 203.54 0Q202.59 0 201.66-0.68 200.74-1.35 200.74-2.35ZM250.08-23.93Q252.38-25.05 254.81-25.55 257.23-26.05 260.81-26.05 264.38-26.05 267.63-25.18 270.88-24.3 272.48-22.8L272.48-22.8Q275.28-20.05 275.28-16.35L275.28-16.35Q275.28-10.55 265.48-10.55L265.48-10.55Q262.03-10.55 258.33-11.2L258.33-11.2Q258.48-7.9 259.56-6.55 260.63-5.2 263.38-5.2 266.13-5.2 267.93-5.8 269.73-6.4 270.83-7.03 271.93-7.65 272.71-7.65 273.48-7.65 274.03-6.95L274.03-6.95Q274.88-6.05 274.88-4.48 274.88-2.9 274.26-2.33 273.63-1.75 272.28-1.2L272.28-1.2Q267.53 0.8 258.78 0.8L258.78 0.8Q251.53 0.8 246.86-2.68 242.18-6.15 242.18-12.05L242.18-12.05Q242.18-14.9 243.23-17.28 244.28-19.65 246.03-21.23 247.78-22.8 250.08-23.93ZM261.68-20.35L261.68-20.35Q258.63-20.35 258.38-15.4L258.38-15.4Q260.78-15.2 260.88-15.2L260.88-15.2Q264.18-15.2 264.18-17.4L264.18-17.4Q264.18-20.35 261.68-20.35ZM307.18-23.93Q309.48-25.05 311.9-25.55 314.33-26.05 317.9-26.05 321.48-26.05 324.73-25.18 327.98-24.3 329.58-22.8L329.58-22.8Q332.38-20.05 332.38-16.35L332.38-16.35Q332.38-10.55 322.58-10.55L322.58-10.55Q319.13-10.55 315.43-11.2L315.43-11.2Q315.58-7.9 316.65-6.55 317.73-5.2 320.48-5.2 323.23-5.2 325.03-5.8 326.83-6.4 327.93-7.03 329.03-7.65 329.8-7.65 330.58-7.65 331.13-6.95L331.13-6.95Q331.98-6.05 331.98-4.48 331.98-2.9 331.35-2.33 330.73-1.75 329.38-1.2L329.38-1.2Q324.63 0.8 315.88 0.8L315.88 0.8Q308.63 0.8 303.95-2.68 299.28-6.15 299.28-12.05L299.28-12.05Q299.28-14.9 300.33-17.28 301.38-19.65 303.13-21.23 304.88-22.8 307.18-23.93ZM318.78-20.35L318.78-20.35Q315.73-20.35 315.48-15.4L315.48-15.4Q317.88-15.2 317.98-15.2L317.98-15.2Q321.28-15.2 321.28-17.4L321.28-17.4Q321.28-20.35 318.78-20.35ZM339.88 1.95L340.98 1.95Q347.58 1.95 347.58 0L347.58 0Q347.58-0.65 346.78-1.95L346.78-1.95Q343.13-7.65 335.98-21.6L335.98-21.6Q335.43-22.75 335.43-23.4L335.43-23.4Q335.43-25.45 337.48-25.45L337.48-25.45 348.48-25.45Q350.08-25.45 350.9-24.95 351.73-24.45 352.48-23.05L352.48-23.05 357.13-14.35Q357.43-13.75 357.98-13.75 358.53-13.75 358.83-14.35L358.83-14.35 363.63-24.3Q364.08-25.3 364.68-25.4L364.68-25.4Q364.88-25.4 365.43-25.45L365.43-25.45 370.68-25.45Q371.38-25.45 371.68-24.8L371.68-24.8Q371.78-24.5 371.78-24.13 371.78-23.75 371.4-23.03 371.03-22.3 367.63-15.05 364.23-7.8 362.45-4.4 360.68-1 359.95 0.25 359.23 1.5 358.03 3.23 356.83 4.95 355.73 5.83 354.63 6.7 352.98 7.6L352.98 7.6Q350.08 9.15 345.55 9.15 341.03 9.15 339.58 8.38 338.13 7.6 338.13 5L338.13 5Q338.13 3.75 338.6 2.85 339.08 1.95 339.88 1.95L339.88 1.95ZM382.67-23.93Q384.97-25.05 387.4-25.55 389.82-26.05 393.4-26.05 396.97-26.05 400.22-25.18 403.47-24.3 405.07-22.8L405.07-22.8Q407.87-20.05 407.87-16.35L407.87-16.35Q407.87-10.55 398.07-10.55L398.07-10.55Q394.62-10.55 390.92-11.2L390.92-11.2Q391.07-7.9 392.15-6.55 393.22-5.2 395.97-5.2 398.72-5.2 400.52-5.8 402.32-6.4 403.42-7.03 404.52-7.65 405.3-7.65 406.07-7.65 406.62-6.95L406.62-6.95Q407.47-6.05 407.47-4.48 407.47-2.9 406.85-2.33 406.22-1.75 404.87-1.2L404.87-1.2Q400.12 0.8 391.37 0.8L391.37 0.8Q384.12 0.8 379.45-2.68 374.77-6.15 374.77-12.05L374.77-12.05Q374.77-14.9 375.82-17.28 376.87-19.65 378.62-21.23 380.37-22.8 382.67-23.93ZM394.27-20.35L394.27-20.35Q391.22-20.35 390.97-15.4L390.97-15.4Q393.37-15.2 393.47-15.2L393.47-15.2Q396.77-15.2 396.77-17.4L396.77-17.4Q396.77-20.35 394.27-20.35ZM423.87-6.55L423.87-6.55Q423.87-7.95 422.7-8.75 421.52-9.55 419.85-9.98 418.17-10.4 416.47-10.98 414.77-11.55 413.6-12.98 412.42-14.4 412.42-16.75L412.42-16.75Q412.42-26.05 426.87-26.05L426.87-26.05Q433.07-26.05 436.82-23.95L436.82-23.95Q438.02-23.3 438.52-22.73 439.02-22.15 439.02-20.7 439.02-19.25 438.45-18.53 437.87-17.8 437.3-17.8 436.72-17.8 434.8-18.93 432.87-20.05 430.82-20.1L430.82-20.1Q429.17-20.1 429.17-18.45L429.17-18.45Q429.17-17.35 430.32-16.7 431.47-16.05 433.12-15.58 434.77-15.1 436.42-14.43 438.07-13.75 439.22-12.18 440.37-10.6 440.37-8.2L440.37-8.2Q440.37 1.1 425.92 1.1L425.92 1.1Q418.87 1.1 414.42-0.95L414.42-0.95Q413.07-1.5 412.47-2.08 411.87-2.65 411.87-4.17 411.87-5.7 412.5-6.35 413.12-7 413.55-7 413.97-7 416.42-5.9 418.87-4.8 421.37-4.8 423.87-4.8 423.87-6.55ZM480.07-12.5Q480.07-6.9 483.02-6.9 485.97-6.9 485.97-12.5L485.97-12.5Q485.97-15.05 485.37-16.43 484.77-17.8 483.02-17.8 481.27-17.8 480.67-16.43 480.07-15.05 480.07-12.5L480.07-12.5ZM501.67-12.5Q501.67 1.1 483.02 1.1 464.37 1.1 464.37-12.5L464.37-12.5Q464.37-18.95 469.12-22.5 473.87-26.05 483.02-26.05 492.17-26.05 496.92-22.5 501.67-18.95 501.67-12.5L501.67-12.5ZM528.76-17.45L528.76-17.45 524.11-17.45Q523.21-17.45 523.21-16.4L523.21-16.4 523.21-3.3Q523.21-1.6 522.61-0.8 522.01 0 520.26 0L520.26 0 510.51 0Q508.76 0 508.19-0.78 507.61-1.55 507.51-3.3L507.51-3.3Q507.31-7.55 507.31-15.8L507.31-15.8Q507.31-16.95 507.11-17.23 506.91-17.5 506.36-17.5L506.36-17.5Q504.66-17.5 504.66-20.55L504.66-20.55Q504.66-22.35 505.16-22.95 505.66-23.55 506.71-23.6L506.71-23.6Q507.01-23.6 507.26-23.85 507.51-24.1 507.51-24.4L507.51-24.4 507.51-25.45Q507.51-35.35 519.51-36.7L519.51-36.7Q521.91-37 525.54-37 529.16-37 533.21-35.65L533.21-35.65Q534.96-35.05 534.96-31.63 534.96-28.2 533.36-28.2L533.36-28.2Q532.66-28.2 530.86-28.78 529.06-29.35 527.81-29.35L527.81-29.35Q525.51-29.35 524.36-28.08 523.21-26.8 523.21-24.95L523.21-24.95Q523.21-23.6 524.31-23.6L524.31-23.6 528.81-23.6Q530.01-23.6 530.61-23.05 531.21-22.5 531.21-20.53 531.21-18.55 530.64-18 530.06-17.45 528.76-17.45ZM574.56-26.25L574.56-26.25Q590.86-26.25 591.01-15.65L591.01-15.65Q591.11-11.15 591.11-7.4 591.11-3.65 591.06-2.35 591.01-1.05 590.38-0.48 589.76 0.1 587.96 0.1L587.96 0.1 577.36 0.1Q575.76 0.1 575.16-0.48 574.56-1.05 574.51-2.2L574.51-2.2Q574.51-2.25 574.48-2.38 574.46-2.5 574.46-2.6L574.46-2.6Q571.16 0.8 565.46 0.8L565.46 0.8Q561.51 0.8 558.73-1.18 555.96-3.15 555.96-6.63 555.96-10.1 557.93-12.18 559.91-14.25 562.63-15 565.36-15.75 568.48-15.75 571.61-15.75 574.61-15.15L574.61-15.15 574.61-15.35Q574.61-17.85 573.63-18.95 572.66-20.05 570.48-20.05 568.31-20.05 566.86-19.68 565.41-19.3 564.66-18.9L564.66-18.9Q562.61-17.7 561.81-17.7 561.01-17.7 560.38-18.45 559.76-19.2 559.76-20.78 559.76-22.35 560.33-22.95 560.91-23.55 562.16-24.15L562.16-24.15Q566.51-26.25 574.56-26.25ZM572.21-5.8L572.21-5.8Q574.41-5.8 574.46-6.65L574.46-6.65Q574.56-8.3 574.56-11L574.56-11Q574.56-12.05 572.96-12.05 571.36-12.05 570.36-11.28 569.36-10.5 569.36-9 569.36-7.5 570.18-6.65 571.01-5.8 572.21-5.8ZM618.8-2.15L618.8-2.15 618.85-14.35Q618.85-15.85 618.1-16.6 617.35-17.35 616.23-17.35 615.1-17.35 614.18-16.57 613.25-15.8 613.25-14.4L613.25-14.4 613.25-11.35Q613.25-4.75 612.95-2.35L612.95-2.35Q612.8-1.5 612.1-0.85 611.4-0.2 609.63-0.08 607.85 0.05 606.1 0.05 604.35 0.05 600.15-0.15L600.15-0.15Q598.95-0.2 598.25-0.85 597.55-1.5 597.45-2.35L597.45-2.35Q597.1-5.6 597.1-12.3 597.1-19 597.3-21.48 597.5-23.95 598.05-24.7 598.6-25.45 600.3-25.45L600.3-25.45 610.05-25.45Q611.75-25.45 612.33-24.7 612.9-23.95 613.05-22.15L613.05-22.15 613.05-22.1Q616.9-26.1 622.43-26.1 627.95-26.1 631.1-23.4 634.25-20.7 634.33-15.95 634.4-11.2 634.4-7.45 634.4-3.7 634.35-2.4 634.3-1.1 633.68-0.53 633.05 0.05 631.25 0.05L631.25 0.05 621.65 0.15Q620.05 0.15 619.43-0.43 618.8-1 618.8-2.15ZM663.1-25.3L663.1-25.3 672.85-25.3Q674.55-25.3 675.12-24.55 675.7-23.8 675.87-21.23 676.05-18.65 676.05-11.83 676.05-5 675.75-2.2L675.75-2.2Q675.6-1.35 674.9-0.7 674.2-0.05 672.42 0.08 670.65 0.2 668.2 0.2 665.75 0.2 663.75 0.08 661.75-0.05 661.05-0.7 660.35-1.35 660.25-2.2L660.25-2.2Q659.9-5.45 659.9-12.18 659.9-18.9 660.1-21.35 660.3-23.8 660.85-24.55 661.4-25.3 663.1-25.3ZM668.5-37.1L668.5-37.1Q671.8-37.1 673.47-35.77 675.15-34.45 675.15-32.15L675.15-32.15Q675.15-26.75 667.95-26.75L667.95-26.75Q665.05-26.75 663-28 660.95-29.25 660.95-31.75L660.95-31.75Q660.95-37.1 668.5-37.1ZM724.85-2.15L724.85-2.15 724.9-14.35Q724.9-15.85 724.15-16.6 723.4-17.35 722.27-17.35 721.15-17.35 720.22-16.57 719.3-15.8 719.3-14.4L719.3-14.4 719.35-7.15Q719.35-3.7 719.3-2.4 719.25-1.1 718.62-0.53 718 0.05 716.2 0.05L716.2 0.05 706.6 0.15Q705 0.15 704.37-0.43 703.75-1 703.75-2.15L703.75-2.15 703.8-14.35Q703.8-15.85 703.05-16.6 702.3-17.35 701.17-17.35 700.05-17.35 699.12-16.57 698.2-15.8 698.2-14.4L698.2-14.4 698.2-11.35Q698.2-4.75 697.9-2.35L697.9-2.35Q697.75-1.5 697.05-0.85 696.35-0.2 694.57-0.08 692.8 0.05 691.05 0.05 689.3 0.05 685.1-0.15L685.1-0.15Q683.9-0.2 683.2-0.85 682.5-1.5 682.4-2.35L682.4-2.35Q682.05-5.6 682.05-12.3 682.05-19 682.25-21.48 682.45-23.95 683-24.7 683.55-25.45 685.25-25.45L685.25-25.45 695-25.45Q696.7-25.45 697.27-24.7 697.85-23.95 698-22.15L698-22.15 698-22.1Q701.85-26.1 707.8-26.1L707.8-26.1Q711.45-26.1 714.15-24.7 716.85-23.3 718.15-20.6L718.15-20.6Q719.8-23.3 722.67-24.7 725.55-26.1 728.9-26.1L728.9-26.1Q734-26.1 737.15-23.4 740.3-20.7 740.37-15.95 740.45-11.2 740.45-7.45 740.45-3.7 740.4-2.4 740.35-1.1 739.72-0.53 739.1 0.05 737.3 0.05L737.3 0.05 727.7 0.15Q726.1 0.15 725.47-0.43 724.85-1 724.85-2.15ZM763.54-26.25L763.54-26.25Q779.84-26.25 779.99-15.65L779.99-15.65Q780.09-11.15 780.09-7.4 780.09-3.65 780.04-2.35 779.99-1.05 779.37-0.48 778.74 0.1 776.94 0.1L776.94 0.1 766.34 0.1Q764.74 0.1 764.14-0.48 763.54-1.05 763.49-2.2L763.49-2.2Q763.49-2.25 763.47-2.38 763.44-2.5 763.44-2.6L763.44-2.6Q760.14 0.8 754.44 0.8L754.44 0.8Q750.49 0.8 747.72-1.18 744.94-3.15 744.94-6.63 744.94-10.1 746.92-12.18 748.89-14.25 751.62-15 754.34-15.75 757.47-15.75 760.59-15.75 763.59-15.15L763.59-15.15 763.59-15.35Q763.59-17.85 762.62-18.95 761.64-20.05 759.47-20.05 757.29-20.05 755.84-19.68 754.39-19.3 753.64-18.9L753.64-18.9Q751.59-17.7 750.79-17.7 749.99-17.7 749.37-18.45 748.74-19.2 748.74-20.78 748.74-22.35 749.32-22.95 749.89-23.55 751.14-24.15L751.14-24.15Q755.49-26.25 763.54-26.25ZM761.19-5.8L761.19-5.8Q763.39-5.8 763.44-6.65L763.44-6.65Q763.54-8.3 763.54-11L763.54-11Q763.54-12.05 761.94-12.05 760.34-12.05 759.34-11.28 758.34-10.5 758.34-9 758.34-7.5 759.17-6.65 759.99-5.8 761.19-5.8ZM802.49-17.8L802.49-17.8Q799.54-17.8 799.54-13.48 799.54-9.15 802.39-9.15L802.39-9.15Q803.64-9.15 804.57-9.83 805.49-10.5 805.49-11.75L805.49-11.75 805.49-15.2Q805.49-16.4 804.57-17.1 803.64-17.8 802.49-17.8ZM821.29-23.05L821.29-23.05 821.39-7.7Q821.39-2.7 821.34-0.1 821.29 2.5 819.84 4.6 818.39 6.7 815.89 7.9L815.89 7.9Q810.99 10.15 802.84 10.15 794.69 10.15 789.49 7.95L789.49 7.95Q788.24 7.4 787.67 6.78 787.09 6.15 787.09 4.58 787.09 3 787.72 2.25 788.34 1.5 789.19 1.5 790.04 1.5 791.29 2.1L791.29 2.1Q795.14 4 798.99 4L798.99 4Q800.74 4 802.14 3.63 803.54 3.25 804.62 2.1 805.69 0.95 805.69-0.85L805.69-0.85 805.64-3.5Q805.64-4 805.34-4L805.34-4Q805.19-4 805.04-3.85L805.04-3.85Q801.04 0 796.24 0 791.44 0 788.22-3.05 784.99-6.1 784.99-12.7 784.99-19.3 788.79-22.68 792.59-26.05 798.09-26.05 803.59-26.05 806.24-22.6L806.24-22.6Q806.29-23.9 807.19-24.6 808.09-25.3 809.19-25.4 810.29-25.5 813.19-25.5L813.19-25.5 818.49-25.4Q819.44-25.4 820.37-24.73 821.29-24.05 821.29-23.05ZM830.59-25.3L830.59-25.3 840.34-25.3Q842.04-25.3 842.61-24.55 843.19-23.8 843.36-21.23 843.54-18.65 843.54-11.83 843.54-5 843.24-2.2L843.24-2.2Q843.09-1.35 842.39-0.7 841.69-0.05 839.91 0.08 838.14 0.2 835.69 0.2 833.24 0.2 831.24 0.08 829.24-0.05 828.54-0.7 827.84-1.35 827.74-2.2L827.74-2.2Q827.39-5.45 827.39-12.18 827.39-18.9 827.59-21.35 827.79-23.8 828.34-24.55 828.89-25.3 830.59-25.3ZM835.99-37.1L835.99-37.1Q839.29-37.1 840.96-35.77 842.64-34.45 842.64-32.15L842.64-32.15Q842.64-26.75 835.44-26.75L835.44-26.75Q832.54-26.75 830.49-28 828.44-29.25 828.44-31.75L828.44-31.75Q828.44-37.1 835.99-37.1ZM871.24-2.15L871.24-2.15 871.29-14.35Q871.29-15.85 870.54-16.6 869.79-17.35 868.66-17.35 867.54-17.35 866.61-16.57 865.69-15.8 865.69-14.4L865.69-14.4 865.69-11.35Q865.69-4.75 865.39-2.35L865.39-2.35Q865.24-1.5 864.54-0.85 863.84-0.2 862.06-0.08 860.29 0.05 858.54 0.05 856.79 0.05 852.59-0.15L852.59-0.15Q851.39-0.2 850.69-0.85 849.99-1.5 849.89-2.35L849.89-2.35Q849.54-5.6 849.54-12.3 849.54-19 849.74-21.48 849.94-23.95 850.49-24.7 851.04-25.45 852.74-25.45L852.74-25.45 862.49-25.45Q864.19-25.45 864.76-24.7 865.34-23.95 865.49-22.15L865.49-22.15 865.49-22.1Q869.34-26.1 874.86-26.1 880.39-26.1 883.54-23.4 886.69-20.7 886.76-15.95 886.84-11.2 886.84-7.45 886.84-3.7 886.79-2.4 886.74-1.1 886.11-0.53 885.49 0.05 883.69 0.05L883.69 0.05 874.09 0.15Q872.49 0.15 871.86-0.43 871.24-1 871.24-2.15ZM909.93-26.25L909.93-26.25Q926.23-26.25 926.38-15.65L926.38-15.65Q926.48-11.15 926.48-7.4 926.48-3.65 926.43-2.35 926.38-1.05 925.76-0.48 925.13 0.1 923.33 0.1L923.33 0.1 912.73 0.1Q911.13 0.1 910.53-0.48 909.93-1.05 909.88-2.2L909.88-2.2Q909.88-2.25 909.86-2.38 909.83-2.5 909.83-2.6L909.83-2.6Q906.53 0.8 900.83 0.8L900.83 0.8Q896.88 0.8 894.11-1.18 891.33-3.15 891.33-6.63 891.33-10.1 893.31-12.18 895.28-14.25 898.01-15 900.73-15.75 903.86-15.75 906.98-15.75 909.98-15.15L909.98-15.15 909.98-15.35Q909.98-17.85 909.01-18.95 908.03-20.05 905.86-20.05 903.68-20.05 902.23-19.68 900.78-19.3 900.03-18.9L900.03-18.9Q897.98-17.7 897.18-17.7 896.38-17.7 895.76-18.45 895.13-19.2 895.13-20.78 895.13-22.35 895.71-22.95 896.28-23.55 897.53-24.15L897.53-24.15Q901.88-26.25 909.93-26.25ZM907.58-5.8L907.58-5.8Q909.78-5.8 909.83-6.65L909.83-6.65Q909.93-8.3 909.93-11L909.93-11Q909.93-12.05 908.33-12.05 906.73-12.05 905.73-11.28 904.73-10.5 904.73-9 904.73-7.5 905.56-6.65 906.38-5.8 907.58-5.8ZM934.58-11.55L934.58-18.2Q934.58-19 933.48-19L933.48-19Q931.53-19 931.18-20.3L931.18-20.3Q930.98-20.95 930.98-22.3 930.98-23.65 931.36-24.23 931.73-24.8 932.81-25.08 933.88-25.35 934.76-26.03 935.63-26.7 938.36-29 941.08-31.3 942.16-32 943.23-32.7 944.83-32.7L944.83-32.7 947.33-32.7Q949.08-32.7 949.68-32.27 950.28-31.85 950.28-30.95L950.28-30.95 950.28-26.2Q950.28-25.15 951.18-25.15L951.18-25.15 956.53-25.15Q957.83-25.15 958.41-24.6 958.98-24.05 958.98-22.08 958.98-20.1 958.38-19.55 957.78-19 956.58-19L956.58-19 951.38-19Q950.68-19 950.48-18.65 950.28-18.3 950.28-17.65L950.28-17.65 950.28-11.65Q950.38-9.95 951.56-8.8 952.73-7.65 954.88-7.65L954.88-7.65Q955.93-7.65 957.48-8.22 959.03-8.8 959.58-8.8L959.58-8.8Q960.93-8.8 960.93-4.8L960.93-4.8Q960.93-1.9 959.38-1.3L959.38-1.3Q957.78-0.75 954.88-0.4 951.98-0.05 949.08-0.05 946.18-0.05 943.56-0.53 940.93-1 938.78-2.2L938.78-2.2Q934.58-4.65 934.58-11.55L934.58-11.55ZM968.73-25.3L968.73-25.3 978.48-25.3Q980.18-25.3 980.75-24.55 981.33-23.8 981.5-21.23 981.68-18.65 981.68-11.83 981.68-5 981.38-2.2L981.38-2.2Q981.23-1.35 980.53-0.7 979.83-0.05 978.05 0.08 976.28 0.2 973.83 0.2 971.38 0.2 969.38 0.08 967.38-0.05 966.68-0.7 965.98-1.35 965.88-2.2L965.88-2.2Q965.53-5.45 965.53-12.18 965.53-18.9 965.73-21.35 965.93-23.8 966.48-24.55 967.03-25.3 968.73-25.3ZM974.13-37.1L974.13-37.1Q977.43-37.1 979.1-35.77 980.78-34.45 980.78-32.15L980.78-32.15Q980.78-26.75 973.58-26.75L973.58-26.75Q970.68-26.75 968.63-28 966.58-29.25 966.58-31.75L966.58-31.75Q966.58-37.1 974.13-37.1ZM985.68-23.6L985.68-23.6Q985.68-25.4 987.73-25.4L987.73-25.4 998.73-25.45Q1000.38-25.45 1001.23-24.98 1002.08-24.5 1002.73-23.05L1002.73-23.05 1007.38-14.35Q1007.58-13.75 1008.18-13.75 1008.78-13.75 1009.08-14.35L1009.08-14.35 1013.88-24.3Q1014.28-25.2 1014.98-25.35L1014.98-25.35Q1015.18-25.4 1015.68-25.4L1015.68-25.4 1020.93-25.45Q1021.63-25.45 1021.88-24.8L1021.88-24.8Q1022.03-24.5 1022.03-24.13 1022.03-23.75 1021.78-23.3L1021.78-23.3Q1014.98-9.3 1010.63-1.6L1010.63-1.6Q1009.78-0.3 1007.93 0.4 1006.08 1.1 1003.88 1.1L1003.88 1.1Q998.98 1.1 997.35-1.43 995.73-3.95 993.93-7.2 992.13-10.45 989.83-14.85 987.53-19.25 986.23-21.6L986.23-21.6Q985.68-22.75 985.68-23.6ZM1032.92-23.93Q1035.22-25.05 1037.65-25.55 1040.07-26.05 1043.65-26.05 1047.22-26.05 1050.47-25.18 1053.72-24.3 1055.32-22.8L1055.32-22.8Q1058.12-20.05 1058.12-16.35L1058.12-16.35Q1058.12-10.55 1048.32-10.55L1048.32-10.55Q1044.87-10.55 1041.17-11.2L1041.17-11.2Q1041.32-7.9 1042.4-6.55 1043.47-5.2 1046.22-5.2 1048.97-5.2 1050.77-5.8 1052.57-6.4 1053.67-7.03 1054.77-7.65 1055.55-7.65 1056.32-7.65 1056.87-6.95L1056.87-6.95Q1057.72-6.05 1057.72-4.48 1057.72-2.9 1057.1-2.33 1056.47-1.75 1055.12-1.2L1055.12-1.2Q1050.37 0.8 1041.62 0.8L1041.62 0.8Q1034.37 0.8 1029.7-2.68 1025.02-6.15 1025.02-12.05L1025.02-12.05Q1025.02-14.9 1026.07-17.28 1027.12-19.65 1028.87-21.23 1030.62-22.8 1032.92-23.93ZM1044.52-20.35L1044.52-20.35Q1041.47-20.35 1041.22-15.4L1041.22-15.4Q1043.62-15.2 1043.72-15.2L1043.72-15.2Q1047.02-15.2 1047.02-17.4L1047.02-17.4Q1047.02-20.35 1044.52-20.35Z" opacity="1" transform="matrix(1,0,0,1,0,0)" fill="#ffffff" class="undefined-text-1" data-fill-palette-color="secondary" id="text-1"></path></svg></g></svg></g></svg></g></svg></g><g></g></svg></g></svg><rect width="395.52" height="89.9084075481074" fill="none" stroke="none" visibility="hidden"></rect></g></svg></g></svg>